<svg xmlns="http://www.w3.org/2000/svg" version="1.1" xmlns:xlink="http://www.w3.org/1999/xlink" xmlns:svgjs="http://svgjs.com/svgjs" width="100%" height="100%"><svg width="100%" height="100%" viewBox="0 0 1080 1080" version="1.1" xmlns="http://www.w3.org/2000/svg" xmlns:xlink="http://www.w3.org/1999/xlink" xml:space="preserve" xmlns:serif="http://www.serif.com/" style="fill-rule:evenodd;clip-rule:evenodd;stroke-linejoin:round;stroke-miterlimit:2;">
    <rect id="SvgjsRect1001" x="0" y="0" width="1080" height="1080" style="fill:none;"></rect>
    <g id="SvgjsG1000" serif:id="Artboard1">
        <g transform="matrix(5.55992,0,0,5.55992,-1233.54,-1426.56)">
            <g transform="matrix(288,0,0,288,227.834,445.575)">
                <path d="M0.339,-0.643C0.334,-0.643 0.333,-0.638 0.331,-0.633C0.327,-0.61 0.306,-0.59 0.295,-0.582C0.293,-0.581 0.292,-0.575 0.292,-0.571C0.292,-0.563 0.291,-0.556 0.286,-0.543C0.228,-0.394 0.14,-0.175 0.111,-0.113C0.073,-0.029 0.064,-0.02 0.018,-0.011C0.008,-0.009 -0.002,-0.007 -0.002,-0.002C-0.002,0.003 0.004,0.005 0.015,0.005C0.039,0.005 0.058,-0 0.083,-0C0.119,-0 0.16,0.005 0.179,0.005C0.19,0.005 0.199,0.003 0.199,-0.002C0.199,-0.005 0.194,-0.009 0.184,-0.012C0.164,-0.016 0.151,-0.02 0.142,-0.029C0.131,-0.04 0.131,-0.059 0.142,-0.097C0.156,-0.146 0.185,-0.22 0.194,-0.242C0.198,-0.25 0.204,-0.261 0.209,-0.261C0.231,-0.261 0.357,-0.261 0.395,-0.263C0.399,-0.263 0.405,-0.258 0.408,-0.251C0.442,-0.163 0.476,-0.074 0.478,-0.057C0.479,-0.035 0.473,-0.018 0.433,-0.012C0.423,-0.011 0.414,-0.007 0.414,-0.003C0.414,0.002 0.42,0.004 0.431,0.004C0.455,0.004 0.493,-0 0.53,-0C0.582,-0 0.598,0.003 0.617,0.003C0.626,0.003 0.635,0.001 0.635,-0.004C0.635,-0.007 0.63,-0.011 0.618,-0.013C0.593,-0.019 0.583,-0.028 0.558,-0.087C0.496,-0.228 0.442,-0.364 0.372,-0.55C0.359,-0.584 0.349,-0.611 0.346,-0.633C0.344,-0.639 0.342,-0.643 0.339,-0.643ZM0.386,-0.295C0.375,-0.291 0.334,-0.291 0.299,-0.291C0.264,-0.291 0.239,-0.291 0.22,-0.292C0.216,-0.292 0.216,-0.299 0.217,-0.301C0.231,-0.342 0.272,-0.457 0.296,-0.514C0.299,-0.521 0.301,-0.524 0.304,-0.516C0.319,-0.482 0.346,-0.418 0.386,-0.305C0.388,-0.3 0.388,-0.296 0.386,-0.295Z" style="fill-rule:nonzero;"></path>
            </g>
        </g>
    </g>
</svg><style>@media (prefers-color-scheme: light) { :root { filter: none; } }
@media (prefers-color-scheme: dark) { :root { filter: invert(100%); } }
</style></svg>