<?xml version="1.0" encoding="UTF-8" standalone="no"?>
<!DOCTYPE svg PUBLIC "-//W3C//DTD SVG 1.1//EN" "http://www.w3.org/Graphics/SVG/1.1/DTD/svg11.dtd">
<svg width="100%" height="100%" viewBox="0 0 1867 96" version="1.1" xmlns="http://www.w3.org/2000/svg" xmlns:xlink="http://www.w3.org/1999/xlink" xml:space="preserve" xmlns:serif="http://www.serif.com/" style="fill-rule:evenodd;clip-rule:evenodd;stroke-linejoin:round;stroke-miterlimit:2;">
    <g id="Artboard1" transform="matrix(1,0,0,1,-26.808,-492.408)">
        <rect x="26.808" y="492.408" width="1866.38" height="95.184" style="fill:none;"/>
        <clipPath id="_clip1">
            <rect x="26.808" y="492.408" width="1866.38" height="95.184"/>
        </clipPath>
        <g clip-path="url(#_clip1)">
            <g transform="matrix(1,0,0,1,-752.879,53.2186)">
                <path d="M830.175,439.885C829.455,439.885 829.311,440.605 829.023,441.325C828.303,444.349 825.135,447.517 823.119,448.813C822.831,448.957 822.543,449.677 822.543,450.253C822.543,451.405 822.399,452.413 821.823,454.285C813.759,475.309 801.231,506.557 796.911,515.773C791.439,527.725 789.855,529.165 783.375,530.605C781.935,530.893 780.495,531.181 780.495,531.901C780.495,532.621 781.503,532.909 783.087,532.909C786.687,532.909 789.567,532.189 793.167,532.189C798.207,532.189 803.967,532.909 806.703,532.909C808.431,532.909 809.727,532.621 809.727,531.901C809.727,531.325 809.007,530.749 807.567,530.461C804.687,529.741 802.671,529.309 801.375,527.869C799.791,526.285 799.791,523.405 801.231,518.365C803.247,511.453 807.279,501.085 808.719,497.629C809.151,496.621 810.015,495.181 810.735,495.181C813.903,495.181 831.183,495.181 836.799,494.893C837.375,494.893 838.383,495.613 838.815,496.621C843.423,508.573 848.175,521.245 848.607,523.981C848.895,527.293 847.455,529.597 842.127,530.461C840.687,530.605 839.391,531.181 839.391,531.901C839.391,532.477 840.399,532.909 841.983,532.909C845.583,532.909 850.767,532.189 856.959,532.189C864.447,532.189 866.895,532.765 870.063,532.765C871.215,532.765 872.655,532.333 872.655,531.613C872.655,531.181 871.935,530.605 870.207,530.173C866.607,529.453 865.167,528.157 861.567,519.949C853.071,500.797 844.287,478.333 834.927,453.277C833.055,448.381 831.615,444.205 831.183,441.469C831.039,440.461 830.607,439.885 830.175,439.885ZM835.503,490.285C834.207,490.717 828.591,490.717 823.551,490.717C818.799,490.717 815.199,490.717 812.319,490.573C811.743,490.573 811.743,489.853 811.887,489.421C813.903,483.661 819.951,466.525 822.975,459.325C823.407,458.317 823.695,457.885 824.127,459.037C825.999,463.501 830.319,473.581 835.647,488.701C835.935,489.565 835.935,490.141 835.503,490.285Z" style="fill-rule:nonzero;"/>
                <path d="M897.711,442.333C897.711,442.909 898.719,443.485 900.015,443.773C902.751,444.493 905.343,444.637 907.791,447.517C910.383,450.397 911.103,452.413 911.103,461.053C911.103,470.701 909.231,502.093 908.367,510.445C907.359,519.661 906.639,523.837 905.199,525.997C903.615,528.157 901.743,529.597 897.423,530.605C895.407,531.037 894.831,531.469 894.831,531.901C894.831,532.621 895.551,533.053 897.423,533.053C899.007,533.053 903.039,532.189 907.935,532.189C913.119,532.189 918.159,532.765 920.175,532.909C921.759,532.909 923.055,532.621 923.055,531.901C923.055,531.325 922.047,530.749 920.607,530.461C917.007,529.597 913.839,527.869 913.119,524.557C912.543,521.821 912.399,519.085 912.399,514.189C912.399,507.277 913.983,470.557 914.559,462.781C914.703,460.909 915.135,460.909 915.711,462.061C920.751,472.285 940.335,513.901 946.671,527.869C947.823,530.317 948.831,532.621 949.695,532.621C950.415,532.621 950.991,531.757 951.855,529.885C958.479,514.909 975.615,480.925 985.263,461.485C985.551,460.621 985.983,460.765 985.983,462.061C985.983,468.829 985.839,506.557 985.407,514.333C984.975,525.853 984.111,528.589 978.063,530.029C976.767,530.173 975.327,530.749 975.327,531.325C975.327,532.477 976.911,532.621 978.207,532.621C980.367,532.621 984.975,532.189 990.879,532.189C995.199,532.189 1002.54,533.053 1005.86,533.053C1007.58,533.053 1008.45,532.765 1008.45,532.045C1008.45,531.325 1007.58,530.893 1006.29,530.461C1000.53,528.877 998.943,527.437 998.367,519.085C998.079,514.477 997.503,500.221 997.503,484.525C997.503,477.325 997.647,460.621 997.935,455.581C998.367,447.229 998.799,445.501 1007.3,443.629C1008.3,443.341 1009.46,442.765 1009.46,442.333C1009.46,441.757 1008.59,441.325 1007.15,441.325C1001.82,441.325 995.055,442.189 990.447,442.189C989.727,442.189 989.007,443.773 989.007,444.061C988.143,446.941 986.271,451.837 984.543,455.725C981.231,462.925 963.231,498.493 955.743,512.461C955.311,513.325 955.023,513.901 954.447,512.893C946.527,497.917 926.223,457.309 920.319,444.205C919.743,442.909 919.023,442.189 918.591,442.189C913.119,442.189 904.191,441.613 900.303,441.469C899.151,441.469 897.711,441.757 897.711,442.333Z" style="fill-rule:nonzero;"/>
                <path d="M1079.44,439.885C1078.72,439.885 1078.58,440.605 1078.29,441.325C1077.57,444.349 1074.4,447.517 1072.38,448.813C1072.1,448.957 1071.81,449.677 1071.81,450.253C1071.81,451.405 1071.66,452.413 1071.09,454.285C1063.02,475.309 1050.5,506.557 1046.17,515.773C1040.7,527.725 1039.12,529.165 1032.64,530.605C1031.2,530.893 1029.76,531.181 1029.76,531.901C1029.76,532.621 1030.77,532.909 1032.35,532.909C1035.95,532.909 1038.83,532.189 1042.43,532.189C1047.47,532.189 1053.23,532.909 1055.97,532.909C1057.69,532.909 1058.99,532.621 1058.99,531.901C1058.99,531.325 1058.27,530.749 1056.83,530.461C1053.95,529.741 1051.93,529.309 1050.64,527.869C1049.06,526.285 1049.06,523.405 1050.5,518.365C1052.51,511.453 1056.54,501.085 1057.98,497.629C1058.41,496.621 1059.28,495.181 1060,495.181C1063.17,495.181 1080.45,495.181 1086.06,494.893C1086.64,494.893 1087.65,495.613 1088.08,496.621C1092.69,508.573 1097.44,521.245 1097.87,523.981C1098.16,527.293 1096.72,529.597 1091.39,530.461C1089.95,530.605 1088.65,531.181 1088.65,531.901C1088.65,532.477 1089.66,532.909 1091.25,532.909C1094.85,532.909 1100.03,532.189 1106.22,532.189C1113.71,532.189 1116.16,532.765 1119.33,532.765C1120.48,532.765 1121.92,532.333 1121.92,531.613C1121.92,531.181 1121.2,530.605 1119.47,530.173C1115.87,529.453 1114.43,528.157 1110.83,519.949C1102.34,500.797 1093.55,478.333 1084.19,453.277C1082.32,448.381 1080.88,444.205 1080.45,441.469C1080.3,440.461 1079.87,439.885 1079.44,439.885ZM1084.77,490.285C1083.47,490.717 1077.86,490.717 1072.82,490.717C1068.06,490.717 1064.46,490.717 1061.58,490.573C1061.01,490.573 1061.01,489.853 1061.15,489.421C1063.17,483.661 1069.21,466.525 1072.24,459.325C1072.67,458.317 1072.96,457.885 1073.39,459.037C1075.26,463.501 1079.58,473.581 1084.91,488.701C1085.2,489.565 1085.2,490.141 1084.77,490.285Z" style="fill-rule:nonzero;"/>
                <path d="M1145.68,442.333C1145.68,442.909 1146.11,443.341 1147.98,443.773C1153.89,444.781 1154.61,445.645 1155.04,453.853C1155.33,458.893 1155.33,468.541 1155.33,488.125C1155.33,507.997 1155.33,517.357 1154.75,523.261C1154.32,527.725 1153.31,529.597 1147.26,530.605C1145.97,530.893 1144.82,531.181 1144.82,531.901C1144.82,532.765 1146.11,532.909 1147.98,532.909C1149.86,532.909 1156.62,532.189 1160.94,532.189C1166.56,532.189 1176.5,532.621 1183.69,532.909C1190.75,533.197 1201.55,533.197 1202.99,533.197C1204.29,533.197 1205.73,532.765 1206.3,531.757C1206.88,530.749 1209.76,522.541 1210.19,521.533C1210.91,519.373 1211.2,517.213 1210.48,517.213C1209.9,517.213 1209.18,517.645 1208.03,519.517C1205.15,524.701 1201.69,528.589 1198.67,529.309C1196.22,529.885 1192.48,530.029 1186.58,530.029C1175.34,529.885 1171.31,528.445 1169.73,526.285C1168.58,524.701 1168.29,520.813 1167.86,515.053C1167.71,512.317 1167.57,498.349 1167.57,484.813C1167.57,471.709 1167.71,458.029 1167.86,455.581C1168.29,445.789 1168.72,444.925 1174.34,443.773C1175.34,443.629 1176.5,443.053 1176.5,442.477C1176.5,441.901 1175.78,441.613 1174.05,441.613C1170.3,441.613 1166.56,442.189 1161.52,442.189C1157.49,442.189 1152.59,441.469 1148.13,441.469C1146.69,441.469 1145.68,441.901 1145.68,442.333Z" style="fill-rule:nonzero;"/>
                <path d="M1279.89,439.885C1279.17,439.885 1279.02,440.605 1278.74,441.325C1278.02,444.349 1274.85,447.517 1272.83,448.813C1272.54,448.957 1272.26,449.677 1272.26,450.253C1272.26,451.405 1272.11,452.413 1271.54,454.285C1263.47,475.309 1250.94,506.557 1246.62,515.773C1241.15,527.725 1239.57,529.165 1233.09,530.605C1231.65,530.893 1230.21,531.181 1230.21,531.901C1230.21,532.621 1231.21,532.909 1232.8,532.909C1236.4,532.909 1239.28,532.189 1242.88,532.189C1247.92,532.189 1253.68,532.909 1256.41,532.909C1258.14,532.909 1259.44,532.621 1259.44,531.901C1259.44,531.325 1258.72,530.749 1257.28,530.461C1254.4,529.741 1252.38,529.309 1251.09,527.869C1249.5,526.285 1249.5,523.405 1250.94,518.365C1252.96,511.453 1256.99,501.085 1258.43,497.629C1258.86,496.621 1259.73,495.181 1260.45,495.181C1263.62,495.181 1280.89,495.181 1286.51,494.893C1287.09,494.893 1288.1,495.613 1288.53,496.621C1293.13,508.573 1297.89,521.245 1298.32,523.981C1298.61,527.293 1297.17,529.597 1291.84,530.461C1290.4,530.605 1289.1,531.181 1289.1,531.901C1289.1,532.477 1290.11,532.909 1291.69,532.909C1295.3,532.909 1300.48,532.189 1306.67,532.189C1314.16,532.189 1316.61,532.765 1319.78,532.765C1320.93,532.765 1322.37,532.333 1322.37,531.613C1322.37,531.181 1321.65,530.605 1319.92,530.173C1316.32,529.453 1314.88,528.157 1311.28,519.949C1302.78,500.797 1294,478.333 1284.64,453.277C1282.77,448.381 1281.33,444.205 1280.89,441.469C1280.75,440.461 1280.32,439.885 1279.89,439.885ZM1285.21,490.285C1283.92,490.717 1278.3,490.717 1273.26,490.717C1268.51,490.717 1264.91,490.717 1262.03,490.573C1261.45,490.573 1261.45,489.853 1261.6,489.421C1263.62,483.661 1269.66,466.525 1272.69,459.325C1273.12,458.317 1273.41,457.885 1273.84,459.037C1275.71,463.501 1280.03,473.581 1285.36,488.701C1285.65,489.565 1285.65,490.141 1285.21,490.285Z" style="fill-rule:nonzero;"/>
                <path d="M1379.1,441.325C1369.89,441.325 1367.01,442.045 1360.24,442.045C1355.34,442.045 1350.74,441.613 1348.72,441.613C1347.13,441.613 1346.13,441.901 1346.13,442.477C1346.13,443.197 1347.42,443.485 1348.72,443.773C1354.77,444.781 1354.77,446.941 1355.06,451.117C1355.34,456.157 1355.92,465.949 1355.92,485.965C1355.92,502.237 1355.63,514.189 1355.2,522.397C1354.77,528.157 1353.33,529.597 1348.58,530.461C1346.7,530.893 1345.84,531.325 1345.84,531.901C1345.84,532.621 1346.85,532.909 1348.43,532.909C1351.02,532.909 1356.78,532.189 1361.97,532.189C1367.44,532.189 1372.77,532.909 1375.07,532.909C1376.65,532.909 1377.81,532.477 1377.81,531.901C1377.81,531.325 1377.09,530.893 1375.65,530.461C1370.61,529.597 1369.45,527.869 1369.02,526.429C1368.45,524.845 1367.87,520.381 1367.87,512.173C1367.73,506.989 1367.73,491.293 1368.02,489.277C1368.02,488.557 1368.59,487.837 1369.17,487.837C1371.9,487.693 1373.34,487.837 1374.5,488.125C1376.37,488.413 1377.95,489.709 1380.11,492.589C1383.57,498.205 1393.07,514.477 1398.98,522.253C1404.74,530.173 1411.5,533.629 1420.72,533.629C1423.74,533.629 1426.62,533.485 1427.78,533.053C1428.78,532.621 1429.36,532.189 1429.36,531.757C1429.36,531.325 1428.5,530.893 1427.63,530.893C1424.75,530.749 1421.15,529.885 1416.98,525.565C1413.95,522.397 1410.93,518.653 1406.46,512.029C1401.57,504.541 1394.08,492.013 1391.34,486.685C1390.77,485.245 1390.77,484.381 1391.34,484.093C1393.36,483.373 1397.25,481.645 1399.26,479.917C1402.58,477.469 1407.47,473.149 1407.47,463.933C1407.47,457.021 1404.59,450.973 1398.54,446.509C1393.79,443.197 1387.74,441.325 1379.1,441.325ZM1373.34,443.773C1379.82,443.773 1384.86,445.357 1389.04,449.677C1392.93,453.565 1394.65,459.037 1394.65,466.093C1394.65,474.013 1390.91,479.485 1386.88,482.221C1383.71,484.381 1375.5,485.389 1372.05,485.533C1371.18,485.533 1369.6,485.533 1368.88,485.245C1368.16,485.245 1367.73,484.525 1367.73,482.797C1367.73,480.349 1367.87,450.397 1368.02,447.949C1368.16,445.357 1368.59,445.069 1369.02,444.781C1369.74,444.349 1371.62,443.773 1373.34,443.773Z" style="fill-rule:nonzero;"/>
                <path d="M1492.29,439.885C1491.57,439.885 1491.42,440.605 1491.13,441.325C1490.41,444.349 1487.25,447.517 1485.23,448.813C1484.94,448.957 1484.65,449.677 1484.65,450.253C1484.65,451.405 1484.51,452.413 1483.93,454.285C1475.87,475.309 1463.34,506.557 1459.02,515.773C1453.55,527.725 1451.97,529.165 1445.49,530.605C1444.05,530.893 1442.61,531.181 1442.61,531.901C1442.61,532.621 1443.62,532.909 1445.2,532.909C1448.8,532.909 1451.68,532.189 1455.28,532.189C1460.32,532.189 1466.08,532.909 1468.82,532.909C1470.54,532.909 1471.84,532.621 1471.84,531.901C1471.84,531.325 1471.12,530.749 1469.68,530.461C1466.8,529.741 1464.78,529.309 1463.49,527.869C1461.9,526.285 1461.9,523.405 1463.34,518.365C1465.36,511.453 1469.39,501.085 1470.83,497.629C1471.26,496.621 1472.13,495.181 1472.85,495.181C1476.02,495.181 1493.3,495.181 1498.91,494.893C1499.49,494.893 1500.5,495.613 1500.93,496.621C1505.54,508.573 1510.29,521.245 1510.72,523.981C1511.01,527.293 1509.57,529.597 1504.24,530.461C1502.8,530.605 1501.5,531.181 1501.5,531.901C1501.5,532.477 1502.51,532.909 1504.1,532.909C1507.69,532.909 1512.88,532.189 1519.07,532.189C1526.56,532.189 1529.01,532.765 1532.17,532.765C1533.33,532.765 1534.77,532.333 1534.77,531.613C1534.77,531.181 1534.05,530.605 1532.32,530.173C1528.72,529.453 1527.28,528.157 1523.68,519.949C1515.18,500.797 1506.4,478.333 1497.04,453.277C1495.17,448.381 1493.73,444.205 1493.3,441.469C1493.15,440.461 1492.72,439.885 1492.29,439.885ZM1497.62,490.285C1496.32,490.717 1490.7,490.717 1485.66,490.717C1480.91,490.717 1477.31,490.717 1474.43,490.573C1473.86,490.573 1473.86,489.853 1474,489.421C1476.02,483.661 1482.06,466.525 1485.09,459.325C1485.52,458.317 1485.81,457.885 1486.24,459.037C1488.11,463.501 1492.43,473.581 1497.76,488.701C1498.05,489.565 1498.05,490.141 1497.62,490.285Z" style="fill-rule:nonzero;"/>
                <path d="M1646.51,439.597C1629.09,439.597 1619.73,445.069 1613.25,449.821C1599.86,460.189 1593.81,472.717 1593.81,487.693C1593.81,501.229 1599.13,513.181 1609.36,521.965C1618,529.597 1630.38,534.781 1645.65,534.781C1652.7,534.781 1661.06,532.189 1667.54,529.453C1670.56,528.157 1673.01,527.005 1674.74,526.141C1675.89,525.565 1675.74,524.557 1675.74,522.685C1675.74,520.813 1675.02,512.461 1675.02,504.685C1675.02,497.197 1675.89,495.901 1678.19,495.325C1679.92,494.893 1681.36,494.461 1681.36,493.597C1681.36,493.021 1680.35,492.733 1678.77,492.733C1677.76,492.733 1673.44,493.021 1669.12,493.021C1662.78,493.021 1659.04,492.589 1655.44,492.589C1652.7,492.445 1651.84,492.877 1651.84,493.597C1651.84,494.317 1653.13,494.605 1654.58,494.893C1660.48,495.757 1662.21,497.341 1662.64,502.237C1663.07,506.557 1662.78,516.061 1662.5,518.797C1662.35,522.541 1661.92,524.845 1660.48,526.573C1656.88,530.173 1650.54,532.333 1645.36,532.333C1638.02,532.333 1630.67,529.453 1624.19,524.125C1616.7,517.645 1608.06,504.829 1608.06,487.837C1608.06,472.717 1612.96,460.477 1619.87,452.989C1626.35,445.933 1635.86,441.901 1645.5,441.901C1660.62,441.901 1669.26,448.813 1673.15,459.181C1673.87,461.197 1674.3,461.629 1675.02,461.629C1675.45,461.629 1676.03,460.765 1675.74,458.893C1675.45,457.021 1674.45,450.253 1674.3,448.669C1674.16,447.373 1673.73,445.789 1672.86,445.501C1671.13,444.781 1666.82,443.197 1663.22,442.189C1659.33,441.325 1653.57,439.597 1646.51,439.597Z" style="fill-rule:nonzero;"/>
                <path d="M1751.78,439.885C1751.06,439.885 1750.91,440.605 1750.62,441.325C1749.9,444.349 1746.74,447.517 1744.72,448.813C1744.43,448.957 1744.14,449.677 1744.14,450.253C1744.14,451.405 1744,452.413 1743.42,454.285C1735.36,475.309 1722.83,506.557 1718.51,515.773C1713.04,527.725 1711.45,529.165 1704.98,530.605C1703.54,530.893 1702.1,531.181 1702.1,531.901C1702.1,532.621 1703.1,532.909 1704.69,532.909C1708.29,532.909 1711.17,532.189 1714.77,532.189C1719.81,532.189 1725.57,532.909 1728.3,532.909C1730.03,532.909 1731.33,532.621 1731.33,531.901C1731.33,531.325 1730.61,530.749 1729.17,530.461C1726.29,529.741 1724.27,529.309 1722.98,527.869C1721.39,526.285 1721.39,523.405 1722.83,518.365C1724.85,511.453 1728.88,501.085 1730.32,497.629C1730.75,496.621 1731.62,495.181 1732.34,495.181C1735.5,495.181 1752.78,495.181 1758.4,494.893C1758.98,494.893 1759.98,495.613 1760.41,496.621C1765.02,508.573 1769.78,521.245 1770.21,523.981C1770.5,527.293 1769.06,529.597 1763.73,530.461C1762.29,530.605 1760.99,531.181 1760.99,531.901C1760.99,532.477 1762,532.909 1763.58,532.909C1767.18,532.909 1772.37,532.189 1778.56,532.189C1786.05,532.189 1788.5,532.765 1791.66,532.765C1792.82,532.765 1794.26,532.333 1794.26,531.613C1794.26,531.181 1793.54,530.605 1791.81,530.173C1788.21,529.453 1786.77,528.157 1783.17,519.949C1774.67,500.797 1765.89,478.333 1756.53,453.277C1754.65,448.381 1753.22,444.205 1752.78,441.469C1752.64,440.461 1752.21,439.885 1751.78,439.885ZM1757.1,490.285C1755.81,490.717 1750.19,490.717 1745.15,490.717C1740.4,490.717 1736.8,490.717 1733.92,490.573C1733.34,490.573 1733.34,489.853 1733.49,489.421C1735.5,483.661 1741.55,466.525 1744.58,459.325C1745.01,458.317 1745.3,457.885 1745.73,459.037C1747.6,463.501 1751.92,473.581 1757.25,488.701C1757.54,489.565 1757.54,490.141 1757.1,490.285Z" style="fill-rule:nonzero;"/>
                <path d="M1819.31,442.333C1819.31,442.909 1820.32,443.485 1821.62,443.773C1824.35,444.493 1826.94,444.637 1829.39,447.517C1831.98,450.397 1832.7,452.413 1832.7,461.053C1832.7,470.701 1830.83,502.093 1829.97,510.445C1828.96,519.661 1828.24,523.837 1826.8,525.997C1825.22,528.157 1823.34,529.597 1819.02,530.605C1817.01,531.037 1816.43,531.469 1816.43,531.901C1816.43,532.621 1817.15,533.053 1819.02,533.053C1820.61,533.053 1824.64,532.189 1829.54,532.189C1834.72,532.189 1839.76,532.765 1841.78,532.909C1843.36,532.909 1844.65,532.621 1844.65,531.901C1844.65,531.325 1843.65,530.749 1842.21,530.461C1838.61,529.597 1835.44,527.869 1834.72,524.557C1834.14,521.821 1834,519.085 1834,514.189C1834,507.277 1835.58,470.557 1836.16,462.781C1836.3,460.909 1836.74,460.909 1837.31,462.061C1842.35,472.285 1861.93,513.901 1868.27,527.869C1869.42,530.317 1870.43,532.621 1871.3,532.621C1872.02,532.621 1872.59,531.757 1873.45,529.885C1880.08,514.909 1897.22,480.925 1906.86,461.485C1907.15,460.621 1907.58,460.765 1907.58,462.061C1907.58,468.829 1907.44,506.557 1907.01,514.333C1906.58,525.853 1905.71,528.589 1899.66,530.029C1898.37,530.173 1896.93,530.749 1896.93,531.325C1896.93,532.477 1898.51,532.621 1899.81,532.621C1901.97,532.621 1906.58,532.189 1912.48,532.189C1916.8,532.189 1924.14,533.053 1927.45,533.053C1929.18,533.053 1930.05,532.765 1930.05,532.045C1930.05,531.325 1929.18,530.893 1927.89,530.461C1922.13,528.877 1920.54,527.437 1919.97,519.085C1919.68,514.477 1919.1,500.221 1919.1,484.525C1919.1,477.325 1919.25,460.621 1919.54,455.581C1919.97,447.229 1920.4,445.501 1928.89,443.629C1929.9,443.341 1931.06,442.765 1931.06,442.333C1931.06,441.757 1930.19,441.325 1928.75,441.325C1923.42,441.325 1916.65,442.189 1912.05,442.189C1911.33,442.189 1910.61,443.773 1910.61,444.061C1909.74,446.941 1907.87,451.837 1906.14,455.725C1902.83,462.925 1884.83,498.493 1877.34,512.461C1876.91,513.325 1876.62,513.901 1876.05,512.893C1868.13,497.917 1847.82,457.309 1841.92,444.205C1841.34,442.909 1840.62,442.189 1840.19,442.189C1834.72,442.189 1825.79,441.613 1821.9,441.469C1820.75,441.469 1819.31,441.757 1819.31,442.333Z" style="fill-rule:nonzero;"/>
                <path d="M1956.83,442.477C1956.83,443.053 1957.55,443.629 1958.99,443.917C1964.17,444.925 1965.9,446.653 1965.9,454.861C1965.9,482.077 1965.9,498.781 1965.18,521.677C1965.04,528.013 1962.16,529.741 1957.55,530.605C1955.97,530.893 1954.96,531.181 1954.96,531.901C1954.96,532.477 1955.82,532.909 1957.55,532.909C1959.13,532.909 1967.63,532.189 1972.53,532.189C1984.19,532.189 2000.46,532.765 2015.73,532.765C2016.74,532.765 2017.6,532.045 2018.03,530.893C2018.89,529.309 2020.62,522.829 2021.34,519.949C2021.92,518.221 2021.78,517.213 2021.2,517.213C2020.62,517.213 2019.9,517.933 2018.61,519.661C2017.17,521.533 2014.86,525.133 2013.28,526.573C2010.26,529.453 2007.23,529.597 1996.29,529.597C1986.93,529.597 1984.48,529.309 1982.32,528.301C1979.73,527.149 1978.58,523.549 1978.58,521.965C1978.58,519.229 1978.14,498.637 1978.14,491.293C1978.14,489.277 1978.29,488.845 1979.15,488.845C1997.87,488.845 2001.62,488.989 2004.93,489.709C2007.23,490.285 2008.24,493.021 2008.82,494.605C2009.68,496.765 2009.97,497.341 2010.54,497.341C2010.83,497.341 2011.69,496.621 2011.41,494.461C2011.26,493.597 2010.83,488.845 2011.12,486.397C2011.26,484.093 2011.84,479.341 2011.84,478.477C2011.84,477.757 2011.69,476.893 2011.12,476.893C2010.54,476.893 2010.11,477.613 2009.68,478.477C2008.24,481.933 2007.09,483.517 2005.93,484.093C2004.64,484.957 2002.62,485.245 1996.43,485.245L1979.01,485.245C1978.58,485.245 1978.14,484.669 1978.14,483.085L1978.14,450.541C1978.14,445.213 1978.72,444.925 1979.87,444.781C1985.34,444.637 2002.77,444.637 2005.79,445.213C2008.38,445.645 2011.26,448.381 2013.71,454.285C2014.43,455.869 2014.86,456.301 2015.44,456.301C2015.87,456.301 2016.16,455.005 2016.02,454.141C2015.44,451.405 2015.01,445.357 2014.86,443.917C2014.58,442.477 2014,441.613 2013.28,441.613C2011.98,441.613 2009.97,441.901 2004.5,441.901C1998.74,441.901 1979.87,442.189 1971.66,442.189C1967.78,442.189 1962.45,441.613 1958.99,441.613C1957.69,441.613 1956.83,442.045 1956.83,442.477Z" style="fill-rule:nonzero;"/>
                <path d="M2113.79,439.597C2105.44,439.597 2099.1,442.333 2095.07,445.501C2089.45,449.821 2085.86,456.301 2085.86,463.933C2085.86,476.461 2094.21,484.237 2106.01,492.157C2116.24,498.925 2123.01,504.541 2123.01,513.901C2123.01,523.405 2115.52,532.189 2104.14,532.189C2095.07,532.189 2085.71,527.005 2083.12,516.205C2082.54,514.189 2082.11,513.325 2081.39,513.325C2080.82,513.325 2080.53,514.333 2080.67,516.061C2080.82,519.517 2081.97,524.845 2082.11,527.149C2082.54,528.877 2083.12,529.885 2084.56,530.749C2089.02,533.053 2097.66,534.781 2104.43,534.781C2119.7,534.781 2135.1,525.277 2135.1,508.861C2135.1,496.045 2126.46,489.565 2120.85,485.533C2116.24,482.221 2111.63,479.053 2106.3,475.453C2100.69,471.565 2096.22,466.525 2096.22,459.181C2096.22,447.229 2106.16,441.901 2113.07,441.901C2116.67,441.901 2121.57,443.197 2124.74,445.645C2127.62,447.661 2129.05,450.541 2130.21,454.285C2130.64,455.869 2131.07,456.589 2131.5,456.589C2132.08,456.589 2132.66,455.437 2132.37,453.709C2132.08,452.125 2131.65,447.805 2131.65,443.917C2131.65,443.485 2131.36,442.477 2130.64,442.333C2128.19,441.469 2120.85,439.597 2113.79,439.597Z" style="fill-rule:nonzero;"/>
                <path d="M2179.89,531.757C2179.89,532.333 2180.61,533.053 2182.48,533.053C2184.78,533.053 2189.25,532.189 2197.17,532.189C2203.22,532.189 2208.26,533.053 2211.57,533.053C2213.44,533.053 2214.3,532.909 2214.3,532.045C2214.3,531.325 2213.58,531.037 2211.86,530.605C2206.82,529.165 2205.52,528.157 2204.94,523.405C2204.51,519.085 2204.08,502.237 2204.08,494.029C2204.08,487.837 2204.37,453.853 2204.37,448.381C2204.37,447.229 2204.66,446.221 2205.38,445.933C2207.53,445.645 2214.45,445.645 2219.2,445.645C2228.56,445.645 2230.72,446.365 2232.01,447.517C2233.17,448.813 2234.32,451.981 2234.75,454.429C2234.89,455.293 2235.33,456.589 2235.9,456.589C2236.34,456.589 2236.91,455.581 2236.91,453.421C2236.91,448.525 2236.91,443.773 2237.34,442.045C2237.49,440.893 2237.34,440.605 2237.2,440.173C2237.05,439.885 2236.48,440.173 2235.9,440.461C2233.74,441.613 2231.87,441.757 2228.7,441.901C2224.82,442.189 2210.27,442.189 2199.18,442.189C2184.49,442.189 2169.66,442.045 2167.5,441.901C2165.49,441.757 2163.62,441.181 2163.04,440.461C2162.61,439.885 2162.18,439.597 2161.74,439.741C2161.17,440.029 2161.02,440.749 2161.02,442.045C2160.88,445.789 2159.73,450.109 2159.01,454.429C2158.86,455.437 2159.01,456.589 2159.58,456.589C2160.16,456.589 2160.88,455.869 2161.6,454.141C2163.62,448.525 2165.49,446.653 2168.22,446.221C2170.96,445.789 2174.56,445.501 2180.03,445.501C2186.51,445.501 2189.82,445.789 2190.83,445.933C2191.26,445.933 2191.55,446.365 2191.7,447.661C2191.98,449.533 2191.98,506.413 2191.12,520.525C2190.69,527.293 2189.82,529.453 2182.77,530.317C2181.18,530.605 2179.89,531.037 2179.89,531.757Z" style="fill-rule:nonzero;"/>
                <path d="M2262.26,442.333C2262.26,442.909 2263.12,443.341 2264.13,443.629C2269.89,445.213 2270.18,446.221 2270.61,453.277C2271.18,461.773 2270.89,483.085 2271.33,494.461C2271.76,512.749 2274.93,521.101 2283.71,528.013C2289.47,532.477 2298.69,534.637 2306.46,534.637C2313.52,534.637 2324.46,533.197 2331.95,525.277C2340.16,516.637 2341.74,503.821 2342.46,489.709C2343.04,481.357 2343.18,462.781 2343.76,454.285C2344.19,447.949 2344.62,445.069 2350.38,444.061C2352.69,443.629 2353.41,443.197 2353.41,442.477C2353.41,442.045 2352.54,441.757 2350.82,441.757C2347.22,441.757 2343.47,442.189 2340.3,442.189C2335.7,442.189 2333.39,441.757 2330.08,441.757C2328.49,441.757 2327.63,442.045 2327.63,442.765C2327.63,443.197 2328.78,443.917 2330.08,444.061C2331.23,444.205 2332.67,444.637 2333.82,444.925C2337.71,446.509 2339.01,448.237 2339.01,475.453C2339.01,479.773 2338.86,486.541 2338.72,491.869C2337.71,520.381 2327.05,528.589 2311.36,528.589C2304.88,528.589 2296.82,526.717 2291.34,520.957C2286.59,515.917 2283.86,507.709 2283.71,496.621C2283.57,488.269 2283.57,469.837 2283.86,456.301C2283.86,449.533 2283.71,445.213 2290.62,444.061C2291.92,443.773 2292.93,443.341 2292.93,442.621C2292.93,442.189 2292.35,441.757 2290.62,441.757C2287.17,441.757 2283.14,442.189 2278.38,442.189C2272.91,442.189 2268.59,441.613 2264.85,441.613C2263.55,441.613 2262.26,441.613 2262.26,442.333Z" style="fill-rule:nonzero;"/>
                <path d="M2377.17,442.909C2377.17,443.629 2378.18,444.061 2379.47,444.205C2384.8,445.213 2385.52,446.653 2385.95,451.693C2386.24,456.157 2386.53,467.677 2386.53,493.453C2386.53,507.709 2386.38,519.373 2385.95,522.829C2385.52,528.445 2384.22,529.597 2379.04,530.461C2377.31,530.749 2376.59,531.181 2376.59,531.613C2376.59,532.477 2377.89,532.765 2379.47,532.765C2380.91,532.765 2385.52,532.477 2389.41,532.477C2393.73,532.477 2397.76,532.909 2402.08,533.197C2406.11,533.485 2409.71,533.773 2413.17,533.773C2416.77,533.773 2422.67,533.485 2426.56,532.621C2444.85,528.157 2464.72,515.341 2464.72,486.253C2464.72,467.677 2454.93,455.437 2443.55,448.237C2433.62,442.189 2423.25,440.461 2411.58,440.461C2408.27,440.461 2402.08,441.037 2398.05,441.469C2392.14,442.045 2385.95,442.045 2379.76,442.045C2378.18,442.045 2377.17,442.333 2377.17,442.909ZM2409.14,443.053C2421.09,443.053 2429.44,446.941 2437.5,454.285C2446.58,462.781 2450.75,475.453 2450.75,488.557C2450.75,512.029 2439.23,523.261 2430.74,527.869C2426.56,530.317 2421.38,531.469 2415.62,531.469C2410.86,531.469 2406.54,529.885 2404.53,528.157C2400.93,525.565 2400.06,522.109 2399.49,515.197C2399.05,508.141 2398.62,498.925 2398.62,484.237C2398.62,457.741 2398.77,453.133 2399.05,448.381C2399.05,445.645 2399.92,444.637 2400.64,444.349C2402.08,443.773 2405.82,443.053 2409.14,443.053Z" style="fill-rule:nonzero;"/>
                <path d="M2493.38,442.333C2493.38,442.765 2493.95,443.197 2495.1,443.629C2499.71,444.637 2501.3,445.357 2501.87,449.965C2502.16,452.125 2502.59,457.453 2502.59,464.509C2502.59,470.845 2502.74,510.013 2502.45,518.221C2502.16,527.005 2501.3,529.309 2495.97,530.317C2493.38,531.037 2492.8,531.469 2492.8,531.901C2492.8,532.621 2493.81,532.909 2495.39,532.909C2498.13,532.909 2502.16,532.189 2509.93,532.189C2514.54,532.189 2517.86,532.621 2520.59,532.621C2522.32,532.621 2523.47,532.477 2523.47,531.613C2523.47,531.037 2522.89,530.605 2521.02,530.173C2516.85,529.021 2515.84,528.157 2515.55,522.541C2515.26,518.077 2514.97,506.269 2514.97,484.957C2514.97,476.317 2514.83,459.757 2515.26,452.701C2515.55,446.797 2515.7,444.637 2521.45,443.773C2523.04,443.485 2523.76,442.909 2523.76,442.333C2523.76,441.901 2522.89,441.613 2521.6,441.613C2518.29,441.613 2513.68,442.189 2508.49,442.189C2504.18,442.189 2500.86,441.613 2495.53,441.613C2494.24,441.613 2493.38,441.901 2493.38,442.333Z" style="fill-rule:nonzero;"/>
                <path d="M2599.93,439.597C2590.58,439.597 2579.34,442.909 2571.86,448.669C2558.03,459.181 2553.14,471.997 2553.14,486.397C2553.14,512.749 2574.45,534.781 2600.66,534.781C2607.57,534.781 2614.19,533.053 2620.1,530.461C2631.18,525.565 2646.88,511.453 2646.88,488.269C2646.88,461.341 2625.42,439.597 2599.93,439.597ZM2597.63,441.901C2609.01,441.901 2616.49,447.661 2621.53,453.853C2629.31,463.789 2633.05,475.453 2633.05,488.269C2633.05,508.861 2624.41,520.813 2618.37,525.997C2613.62,530.461 2608.14,532.045 2603.1,532.045C2594.89,532.045 2585.97,528.445 2578.19,518.365C2571.28,509.725 2566.96,497.053 2566.96,485.533C2566.96,473.437 2569.98,460.765 2576.75,452.557C2580.78,447.805 2589.28,441.901 2597.63,441.901Z" style="fill-rule:nonzero;"/>
            </g>
        </g>
    </g>
</svg>
